<svg width="1920" height="1080" viewBox="0 0 1920 1080" fill="none" xmlns="http://www.w3.org/2000/svg">
  <!-- Sky gradient background -->
  <defs>
    <linearGradient id="skyGradient" x1="0%" y1="0%" x2="0%" y2="100%">
      <stop offset="0%" style="stop-color:#87CEEB;stop-opacity:1" />
      <stop offset="100%" style="stop-color:#4682B4;stop-opacity:1" />
    </linearGradient>
    <linearGradient id="containerGradient1" x1="0%" y1="0%" x2="100%" y2="100%">
      <stop offset="0%" style="stop-color:#FF6B35;stop-opacity:1" />
      <stop offset="100%" style="stop-color:#D63031;stop-opacity:1" />
    </linearGradient>
    <linearGradient id="containerGradient2" x1="0%" y1="0%" x2="100%" y2="100%">
      <stop offset="0%" style="stop-color:#00B894;stop-opacity:1" />
      <stop offset="100%" style="stop-color:#00A085;stop-opacity:1" />
    </linearGradient>
    <linearGradient id="containerGradient3" x1="0%" y1="0%" x2="100%" y2="100%">
      <stop offset="0%" style="stop-color:#0984E3;stop-opacity:1" />
      <stop offset="100%" style="stop-color:#0066CC;stop-opacity:1" />
    </linearGradient>
    <linearGradient id="containerGradient4" x1="0%" y1="0%" x2="100%" y2="100%">
      <stop offset="0%" style="stop-color:#FDCB6E;stop-opacity:1" />
      <stop offset="100%" style="stop-color:#E17055;stop-opacity:1" />
    </linearGradient>
    <linearGradient id="craneGradient" x1="0%" y1="0%" x2="100%" y2="100%">
      <stop offset="0%" style="stop-color:#FFD700;stop-opacity:1" />
      <stop offset="100%" style="stop-color:#FFA500;stop-opacity:1" />
    </linearGradient>
  </defs>
  
  <!-- Sky background -->
  <rect width="1920" height="1080" fill="url(#skyGradient)"/>
  
  <!-- Water/Ocean -->
  <rect x="0" y="800" width="1920" height="280" fill="#2E86AB" opacity="0.8"/>
  
  <!-- Distant mountains/horizon -->
  <polygon points="0,700 300,650 600,680 900,640 1200,670 1500,650 1920,680 1920,800 0,800" fill="#5A6C7D" opacity="0.6"/>
  
  <!-- Container ship in background -->
  <g transform="translate(1400, 720)">
    <!-- Ship hull -->
    <rect x="0" y="20" width="400" height="60" fill="#2C3E50" rx="5"/>
    <!-- Ship containers (background) -->
    <rect x="50" y="-20" width="60" height="40" fill="url(#containerGradient1)" rx="2"/>
    <rect x="120" y="-20" width="60" height="40" fill="url(#containerGradient2)" rx="2"/>
    <rect x="190" y="-20" width="60" height="40" fill="url(#containerGradient3)" rx="2"/>
    <rect x="260" y="-20" width="60" height="40" fill="url(#containerGradient4)" rx="2"/>
  </g>
  
  <!-- Port cranes -->
  <g transform="translate(200, 400)">
    <!-- Crane 1 -->
    <rect x="0" y="200" width="20" height="300" fill="url(#craneGradient)"/>
    <rect x="-50" y="180" width="120" height="20" fill="url(#craneGradient)"/>
    <rect x="60" y="200" width="15" height="200" fill="url(#craneGradient)" transform="rotate(15 67.5 300)"/>
    <!-- Crane hook -->
    <circle cx="10" cy="350" r="5" fill="#FFD700"/>
    <line x1="10" y1="200" x2="10" y2="345" stroke="#333" stroke-width="2"/>
  </g>
  
  <g transform="translate(800, 350)">
    <!-- Crane 2 -->
    <rect x="0" y="200" width="25" height="350" fill="url(#craneGradient)"/>
    <rect x="-60" y="180" width="140" height="25" fill="url(#craneGradient)"/>
    <rect x="70" y="200" width="18" height="250" fill="url(#craneGradient)" transform="rotate(20 79 325)"/>
    <!-- Crane hook -->
    <circle cx="12.5" cy="400" r="6" fill="#FFD700"/>
    <line x1="12.5" y1="205" x2="12.5" y2="394" stroke="#333" stroke-width="2"/>
  </g>
  
  <!-- Container stacks (foreground) -->
  <!-- Stack 1 -->
  <g transform="translate(100, 600)">
    <!-- Bottom row -->
    <rect x="0" y="80" width="120" height="80" fill="url(#containerGradient1)" rx="4"/>
    <rect x="130" y="80" width="120" height="80" fill="url(#containerGradient2)" rx="4"/>
    <rect x="260" y="80" width="120" height="80" fill="url(#containerGradient3)" rx="4"/>
    <!-- Middle row -->
    <rect x="0" y="0" width="120" height="80" fill="url(#containerGradient4)" rx="4"/>
    <rect x="130" y="0" width="120" height="80" fill="url(#containerGradient1)" rx="4"/>
    <rect x="260" y="0" width="120" height="80" fill="url(#containerGradient2)" rx="4"/>
    
    <!-- Container details -->
    <rect x="10" y="10" width="100" height="60" fill="none" stroke="rgba(255,255,255,0.3)" stroke-width="2" rx="2"/>
    <rect x="140" y="10" width="100" height="60" fill="none" stroke="rgba(255,255,255,0.3)" stroke-width="2" rx="2"/>
    <rect x="270" y="10" width="100" height="60" fill="none" stroke="rgba(255,255,255,0.3)" stroke-width="2" rx="2"/>
    
    <!-- Container doors -->
    <line x1="110" y1="10" x2="110" y2="70" stroke="rgba(255,255,255,0.5)" stroke-width="1"/>
    <line x1="240" y1="10" x2="240" y2="70" stroke="rgba(255,255,255,0.5)" stroke-width="1"/>
    <line x1="370" y1="10" x2="370" y2="70" stroke="rgba(255,255,255,0.5)" stroke-width="1"/>
  </g>
  
  <!-- Stack 2 -->
  <g transform="translate(500, 650)">
    <!-- Bottom row -->
    <rect x="0" y="50" width="120" height="80" fill="url(#containerGradient3)" rx="4"/>
    <rect x="130" y="50" width="120" height="80" fill="url(#containerGradient4)" rx="4"/>
    <!-- Top row -->
    <rect x="0" y="-30" width="120" height="80" fill="url(#containerGradient2)" rx="4"/>
    <rect x="130" y="-30" width="120" height="80" fill="url(#containerGradient1)" rx="4"/>
    
    <!-- Container details -->
    <rect x="10" y="-20" width="100" height="60" fill="none" stroke="rgba(255,255,255,0.3)" stroke-width="2" rx="2"/>
    <rect x="140" y="-20" width="100" height="60" fill="none" stroke="rgba(255,255,255,0.3)" stroke-width="2" rx="2"/>
  </g>
  
  <!-- Stack 3 -->
  <g transform="translate(900, 680)">
    <!-- Single row -->
    <rect x="0" y="0" width="120" height="80" fill="url(#containerGradient1)" rx="4"/>
    <rect x="130" y="0" width="120" height="80" fill="url(#containerGradient3)" rx="4"/>
    <rect x="260" y="0" width="120" height="80" fill="url(#containerGradient4)" rx="4"/>
    <rect x="390" y="0" width="120" height="80" fill="url(#containerGradient2)" rx="4"/>
    
    <!-- Container details -->
    <rect x="10" y="10" width="100" height="60" fill="none" stroke="rgba(255,255,255,0.3)" stroke-width="2" rx="2"/>
    <rect x="140" y="10" width="100" height="60" fill="none" stroke="rgba(255,255,255,0.3)" stroke-width="2" rx="2"/>
    <rect x="270" y="10" width="100" height="60" fill="none" stroke="rgba(255,255,255,0.3)" stroke-width="2" rx="2"/>
    <rect x="400" y="10" width="100" height="60" fill="none" stroke="rgba(255,255,255,0.3)" stroke-width="2" rx="2"/>
  </g>
  
  <!-- Trucks -->
  <g transform="translate(1300, 720)">
    <!-- Truck 1 -->
    <rect x="0" y="20" width="80" height="30" fill="#2C3E50" rx="5"/>
    <rect x="85" y="10" width="60" height="40" fill="url(#containerGradient1)" rx="3"/>
    <!-- Wheels -->
    <circle cx="15" cy="55" r="8" fill="#34495E"/>
    <circle cx="65" cy="55" r="8" fill="#34495E"/>
    <circle cx="125" cy="55" r="8" fill="#34495E"/>
  </g>
  
  <!-- Port buildings -->
  <g transform="translate(50, 500)">
    <rect x="0" y="0" width="80" height="120" fill="#7F8C8D" rx="5"/>
    <rect x="90" y="20" width="60" height="100" fill="#95A5A6" rx="3"/>
    <rect x="160" y="10" width="70" height="110" fill="#7F8C8D" rx="4"/>
    
    <!-- Windows -->
    <rect x="10" y="20" width="15" height="15" fill="#F39C12" opacity="0.8"/>
    <rect x="30" y="20" width="15" height="15" fill="#F39C12" opacity="0.8"/>
    <rect x="50" y="20" width="15" height="15" fill="#F39C12" opacity="0.8"/>
    <rect x="10" y="50" width="15" height="15" fill="#F39C12" opacity="0.8"/>
    <rect x="30" y="50" width="15" height="15" fill="#F39C12" opacity="0.8"/>
    <rect x="50" y="50" width="15" height="15" fill="#F39C12" opacity="0.8"/>
  </g>
  
  <!-- Clouds -->
  <g opacity="0.7">
    <ellipse cx="300" cy="150" rx="60" ry="30" fill="white"/>
    <ellipse cx="280" cy="140" rx="40" ry="25" fill="white"/>
    <ellipse cx="320" cy="140" rx="45" ry="28" fill="white"/>
    
    <ellipse cx="800" cy="100" rx="80" ry="40" fill="white"/>
    <ellipse cx="770" cy="90" rx="50" ry="30" fill="white"/>
    <ellipse cx="830" cy="90" rx="55" ry="35" fill="white"/>
    
    <ellipse cx="1400" cy="120" rx="70" ry="35" fill="white"/>
    <ellipse cx="1380" cy="110" rx="45" ry="25" fill="white"/>
    <ellipse cx="1420" cy="110" rx="50" ry="30" fill="white"/>
  </g>
  
  <!-- Seagulls -->
  <g stroke="#666" stroke-width="2" fill="none" opacity="0.6">
    <path d="M 400 200 Q 410 195 420 200 Q 430 205 440 200"/>
    <path d="M 600 180 Q 610 175 620 180 Q 630 185 640 180"/>
    <path d="M 1100 160 Q 1110 155 1120 160 Q 1130 165 1140 160"/>
  </g>
</svg>