<svg viewBox="0 0 1920 1080" xmlns="http://www.w3.org/2000/svg">
  <!-- Night Sky Background -->
  <defs>
    <!-- Sky Gradient -->
    <linearGradient id="skyGradient" x1="0%" y1="0%" x2="0%" y2="100%">
      <stop offset="0%" style="stop-color:#1a1a2e;stop-opacity:1" />
      <stop offset="30%" style="stop-color:#16213e;stop-opacity:1" />
      <stop offset="70%" style="stop-color:#0f3460;stop-opacity:1" />
      <stop offset="100%" style="stop-color:#0e4b99;stop-opacity:1" />
    </linearGradient>
    
    <!-- Water Gradient -->
    <linearGradient id="waterGradient" x1="0%" y1="0%" x2="0%" y2="100%">
      <stop offset="0%" style="stop-color:#1e3a5f;stop-opacity:1" />
      <stop offset="50%" style="stop-color:#2c5282;stop-opacity:1" />
      <stop offset="100%" style="stop-color:#1a202c;stop-opacity:1" />
    </linearGradient>
    
    <!-- Container Glow -->
    <filter id="containerGlow">
      <feGaussianBlur stdDeviation="3" result="coloredBlur"/>
      <feMerge> 
        <feMergeNode in="coloredBlur"/>
        <feMergeNode in="SourceGraphic"/>
      </feMerge>
    </filter>
    
    <!-- Crane Light -->
    <radialGradient id="craneLight" cx="50%" cy="50%" r="50%">
      <stop offset="0%" style="stop-color:#ffd700;stop-opacity:0.8" />
      <stop offset="50%" style="stop-color:#ff8c00;stop-opacity:0.4" />
      <stop offset="100%" style="stop-color:#ff4500;stop-opacity:0.1" />
    </radialGradient>
  </defs>
  
  <!-- Sky -->
  <rect width="1920" height="600" fill="url(#skyGradient)"/>
  
  <!-- Distant Mountains/City Silhouette -->
  <polygon points="0,400 200,350 400,380 600,340 800,360 1000,320 1200,340 1400,300 1600,320 1800,280 1920,300 1920,600 0,600" fill="#0a1628" opacity="0.7"/>
  
  <!-- Water -->
  <rect x="0" y="600" width="1920" height="480" fill="url(#waterGradient)"/>
  
  <!-- Water Reflections -->
  <ellipse cx="400" cy="800" rx="80" ry="20" fill="#ff8c00" opacity="0.3"/>
  <ellipse cx="800" cy="850" rx="60" ry="15" fill="#ffd700" opacity="0.4"/>
  <ellipse cx="1200" cy="820" rx="70" ry="18" fill="#ff6b35" opacity="0.3"/>
  <ellipse cx="1600" cy="880" rx="90" ry="25" fill="#ff8c00" opacity="0.2"/>
  
  <!-- Port Infrastructure - Dock -->
  <rect x="0" y="700" width="1920" height="100" fill="#2d3748"/>
  <rect x="0" y="780" width="1920" height="20" fill="#4a5568"/>
  
  <!-- Container Stacks - Left Side -->
  <g transform="translate(50, 500)">
    <!-- First Stack -->
    <rect x="0" y="100" width="40" height="25" fill="#e53e3e" filter="url(#containerGlow)"/>
    <rect x="0" y="75" width="40" height="25" fill="#3182ce" filter="url(#containerGlow)"/>
    <rect x="0" y="50" width="40" height="25" fill="#38a169" filter="url(#containerGlow)"/>
    <rect x="0" y="25" width="40" height="25" fill="#d69e2e" filter="url(#containerGlow)"/>
    
    <!-- Second Stack -->
    <rect x="50" y="120" width="40" height="25" fill="#805ad5" filter="url(#containerGlow)"/>
    <rect x="50" y="95" width="40" height="25" fill="#dd6b20" filter="url(#containerGlow)"/>
    <rect x="50" y="70" width="40" height="25" fill="#319795" filter="url(#containerGlow)"/>
    
    <!-- Third Stack -->
    <rect x="100" y="110" width="40" height="25" fill="#e53e3e" filter="url(#containerGlow)"/>
    <rect x="100" y="85" width="40" height="25" fill="#3182ce" filter="url(#containerGlow)"/>
    <rect x="100" y="60" width="40" height="25" fill="#38a169" filter="url(#containerGlow)"/>
    <rect x="100" y="35" width="40" height="25" fill="#d69e2e" filter="url(#containerGlow)"/>
    <rect x="100" y="10" width="40" height="25" fill="#805ad5" filter="url(#containerGlow)"/>
  </g>
  
  <!-- Container Stacks - Center -->
  <g transform="translate(400, 480)">
    <!-- Multiple stacks with varying heights -->
    <rect x="0" y="120" width="40" height="25" fill="#e53e3e" filter="url(#containerGlow)"/>
    <rect x="0" y="95" width="40" height="25" fill="#3182ce" filter="url(#containerGlow)"/>
    <rect x="0" y="70" width="40" height="25" fill="#38a169" filter="url(#containerGlow)"/>
    
    <rect x="50" y="140" width="40" height="25" fill="#d69e2e" filter="url(#containerGlow)"/>
    <rect x="50" y="115" width="40" height="25" fill="#805ad5" filter="url(#containerGlow)"/>
    <rect x="50" y="90" width="40" height="25" fill="#dd6b20" filter="url(#containerGlow)"/>
    <rect x="50" y="65" width="40" height="25" fill="#319795" filter="url(#containerGlow)"/>
    
    <rect x="100" y="130" width="40" height="25" fill="#e53e3e" filter="url(#containerGlow)"/>
    <rect x="100" y="105" width="40" height="25" fill="#3182ce" filter="url(#containerGlow)"/>
    <rect x="100" y="80" width="40" height="25" fill="#38a169" filter="url(#containerGlow)"/>
    <rect x="100" y="55" width="40" height="25" fill="#d69e2e" filter="url(#containerGlow)"/>
    
    <rect x="150" y="125" width="40" height="25" fill="#805ad5" filter="url(#containerGlow)"/>
    <rect x="150" y="100" width="40" height="25" fill="#dd6b20" filter="url(#containerGlow)"/>
    <rect x="150" y="75" width="40" height="25" fill="#319795" filter="url(#containerGlow)"/>
  </g>
  
  <!-- Container Stacks - Right Side -->
  <g transform="translate(1200, 520)">
    <rect x="0" y="100" width="40" height="25" fill="#e53e3e" filter="url(#containerGlow)"/>
    <rect x="0" y="75" width="40" height="25" fill="#3182ce" filter="url(#containerGlow)"/>
    <rect x="0" y="50" width="40" height="25" fill="#38a169" filter="url(#containerGlow)"/>
    
    <rect x="50" y="110" width="40" height="25" fill="#d69e2e" filter="url(#containerGlow)"/>
    <rect x="50" y="85" width="40" height="25" fill="#805ad5" filter="url(#containerGlow)"/>
    <rect x="50" y="60" width="40" height="25" fill="#dd6b20" filter="url(#containerGlow)"/>
    <rect x="50" y="35" width="40" height="25" fill="#319795" filter="url(#containerGlow)"/>
    
    <rect x="100" y="90" width="40" height="25" fill="#e53e3e" filter="url(#containerGlow)"/>
    <rect x="100" y="65" width="40" height="25" fill="#3182ce" filter="url(#containerGlow)"/>
    <rect x="100" y="40" width="40" height="25" fill="#38a169" filter="url(#containerGlow)"/>
  </g>
  
  <!-- Large Container Ship -->
  <g transform="translate(800, 650)">
    <!-- Ship Hull -->
    <ellipse cx="200" cy="50" rx="180" ry="30" fill="#2d3748"/>
    <rect x="20" y="20" width="360" height="30" fill="#4a5568"/>
    
    <!-- Ship Superstructure -->
    <rect x="280" y="0" width="80" height="20" fill="#2d3748"/>
    <rect x="290" y="-10" width="60" height="10" fill="#4a5568"/>
    
    <!-- Ship Containers -->
    <rect x="50" y="5" width="20" height="15" fill="#e53e3e"/>
    <rect x="75" y="5" width="20" height="15" fill="#3182ce"/>
    <rect x="100" y="5" width="20" height="15" fill="#38a169"/>
    <rect x="125" y="5" width="20" height="15" fill="#d69e2e"/>
    <rect x="150" y="5" width="20" height="15" fill="#805ad5"/>
    <rect x="175" y="5" width="20" height="15" fill="#dd6b20"/>
    <rect x="200" y="5" width="20" height="15" fill="#319795"/>
    <rect x="225" y="5" width="20" height="15" fill="#e53e3e"/>
    
    <!-- Ship Lights -->
    <circle cx="30" cy="25" r="3" fill="#ffd700" opacity="0.8"/>
    <circle cx="370" cy="25" r="3" fill="#ff0000" opacity="0.8"/>
  </g>
  
  <!-- Port Cranes -->
  <!-- Crane 1 -->
  <g transform="translate(300, 200)">
    <!-- Crane Base -->
    <rect x="0" y="400" width="30" height="100" fill="#b7791f"/>
    <!-- Crane Tower -->
    <rect x="10" y="100" width="10" height="400" fill="#d69e2e"/>
    <!-- Crane Arm -->
    <rect x="20" y="150" width="200" height="8" fill="#d69e2e"/>
    <!-- Crane Trolley -->
    <rect x="120" y="145" width="15" height="15" fill="#b7791f"/>
    <!-- Crane Hook -->
    <line x1="127" y1="160" x2="127" y2="200" stroke="#4a5568" stroke-width="2"/>
    <rect x="125" y="200" width="4" height="8" fill="#4a5568"/>
    <!-- Crane Light -->
    <circle cx="15" cy="120" r="25" fill="url(#craneLight)" opacity="0.6"/>
  </g>
  
  <!-- Crane 2 -->
  <g transform="translate(600, 180)">
    <rect x="0" y="420" width="30" height="100" fill="#b7791f"/>
    <rect x="10" y="120" width="10" height="400" fill="#d69e2e"/>
    <rect x="20" y="170" width="180" height="8" fill="#d69e2e"/>
    <rect x="100" y="165" width="15" height="15" fill="#b7791f"/>
    <line x1="107" y1="180" x2="107" y2="220" stroke="#4a5568" stroke-width="2"/>
    <rect x="105" y="220" width="4" height="8" fill="#4a5568"/>
    <circle cx="15" cy="140" r="25" fill="url(#craneLight)" opacity="0.6"/>
  </g>
  
  <!-- Crane 3 -->
  <g transform="translate(1000, 160)">
    <rect x="0" y="440" width="30" height="100" fill="#b7791f"/>
    <rect x="10" y="140" width="10" height="400" fill="#d69e2e"/>
    <rect x="20" y="190" width="220" height="8" fill="#d69e2e"/>
    <rect x="140" y="185" width="15" height="15" fill="#b7791f"/>
    <line x1="147" y1="200" x2="147" y2="240" stroke="#4a5568" stroke-width="2"/>
    <rect x="145" y="240" width="4" height="8" fill="#4a5568"/>
    <circle cx="15" cy="160" r="25" fill="url(#craneLight)" opacity="0.6"/>
  </g>
  
  <!-- Crane 4 -->
  <g transform="translate(1400, 140)">
    <rect x="0" y="460" width="30" height="100" fill="#b7791f"/>
    <rect x="10" y="160" width="10" height="400" fill="#d69e2e"/>
    <rect x="20" y="210" width="160" height="8" fill="#d69e2e"/>
    <rect x="80" y="205" width="15" height="15" fill="#b7791f"/>
    <line x1="87" y1="220" x2="87" y2="260" stroke="#4a5568" stroke-width="2"/>
    <rect x="85" y="260" width="4" height="8" fill="#4a5568"/>
    <circle cx="15" cy="180" r="25" fill="url(#craneLight)" opacity="0.6"/>
  </g>
  
  <!-- Port Buildings -->
  <rect x="1600" y="500" width="100" height="200" fill="#2d3748"/>
  <rect x="1620" y="480" width="60" height="20" fill="#4a5568"/>
  <!-- Building Windows -->
  <rect x="1610" y="520" width="8" height="12" fill="#ffd700" opacity="0.7"/>
  <rect x="1630" y="520" width="8" height="12" fill="#ffd700" opacity="0.7"/>
  <rect x="1650" y="520" width="8" height="12" fill="#ffd700" opacity="0.7"/>
  <rect x="1670" y="520" width="8" height="12" fill="#ffd700" opacity="0.7"/>
  
  <rect x="1610" y="550" width="8" height="12" fill="#ffd700" opacity="0.7"/>
  <rect x="1630" y="550" width="8" height="12" fill="#ffd700" opacity="0.7"/>
  <rect x="1650" y="550" width="8" height="12" fill="#ffd700" opacity="0.7"/>
  <rect x="1670" y="550" width="8" height="12" fill="#ffd700" opacity="0.7"/>
  
  <!-- Atmospheric Lighting Effects -->
  <circle cx="350" cy="300" r="100" fill="#ff8c00" opacity="0.1"/>
  <circle cx="650" cy="280" r="80" fill="#ffd700" opacity="0.1"/>
  <circle cx="1050" cy="260" r="90" fill="#ff6b35" opacity="0.1"/>
  <circle cx="1450" cy="240" r="70" fill="#ff8c00" opacity="0.1"/>
  
  <!-- Clouds -->
  <ellipse cx="200" cy="150" rx="60" ry="20" fill="#2d3748" opacity="0.6"/>
  <ellipse cx="500" cy="120" rx="80" ry="25" fill="#2d3748" opacity="0.5"/>
  <ellipse cx="800" cy="100" rx="70" ry="22" fill="#2d3748" opacity="0.6"/>
  <ellipse cx="1200" cy="130" rx="90" ry="28" fill="#2d3748" opacity="0.5"/>
  <ellipse cx="1600" cy="110" rx="75" ry="24" fill="#2d3748" opacity="0.6"/>
</svg>